<?xml version="1.0" standalone="no"?><!DOCTYPE svg PUBLIC "-//W3C//DTD SVG 1.1//EN" "http://www.w3.org/Graphics/SVG/1.1/DTD/svg11.dtd"><svg t="1781426862118" class="icon" viewBox="0 0 1024 1024" version="1.1" xmlns="http://www.w3.org/2000/svg" p-id="987" xmlns:xlink="http://www.w3.org/1999/xlink" width="256" height="256"><path d="M531.669333 970.581333c-7.125333 0-14.506667 0-21.76-0.426666A480.64 480.64 0 0 1 54.656 532.48 472.192 472.192 0 0 1 344.32 64a124.928 124.928 0 0 1 47.36-10.752 61.696 61.696 0 0 1 46.08 18.005333c11.946667 11.904 28.672 39.509333 6.4 90.453334a348.501333 348.501333 0 0 0-28.970667 142.933333 365.226667 365.226667 0 0 0 349.44 357.12c5.248 0.256 10.624 0.341333 15.872 0.341333a374.442667 374.442667 0 0 0 65.578667-5.930666 149.930667 149.930667 0 0 1 26.581333-2.56 67.84 67.84 0 0 1 62.165334 29.44c9.002667 14.592 19.029333 45.909333-14.933334 91.733333a478.634667 478.634667 0 0 1-170.282666 144.298667 486.826667 486.826667 0 0 1-217.941334 51.498666z m-140.373333-853.333333a58.922667 58.922667 0 0 0-21.717333 5.546667 409.6 409.6 0 0 0-251.349334 404.949333 415.658667 415.658667 0 0 0 394.24 378.410667c6.784 0.341333 13.653333 0.512 20.437334 0.512a416.426667 416.426667 0 0 0 334.976-169.472 84.394667 84.394667 0 0 0 10.666666-18.730667 52.352 52.352 0 0 0-6.314666-0.384 76.373333 76.373333 0 0 0-14.976 1.621333 445.866667 445.866667 0 0 1-77.738667 6.784c-5.930667 0-11.946667 0-17.834667-0.341333a430.165333 430.165333 0 0 1-410.88-420.693333 416.896 416.896 0 0 1 34.986667-168.96 61.354667 61.354667 0 0 0 5.461333-19.242667z" fill="#292D32" p-id="988"></path></svg>