<?xml version="1.0" standalone="no"?><!DOCTYPE svg PUBLIC "-//W3C//DTD SVG 1.1//EN" "http://www.w3.org/Graphics/SVG/1.1/DTD/svg11.dtd"><svg t="1781426897344" class="icon" viewBox="0 0 1024 1024" version="1.1" xmlns="http://www.w3.org/2000/svg" p-id="1205" xmlns:xlink="http://www.w3.org/1999/xlink" width="256" height="256"><path d="M512 821.333333A309.333333 309.333333 0 1 1 821.333333 512 309.674667 309.674667 0 0 1 512 821.333333z m0-554.666666A245.333333 245.333333 0 1 0 757.333333 512 245.632 245.632 0 0 0 512 266.666667z" fill="#292D32" p-id="1206"></path><path d="M512 979.626667a41.386667 41.386667 0 0 1-42.666667-40.96v-3.413334a42.666667 42.666667 0 1 1 85.333334 0 44.117333 44.117333 0 0 1-42.666667 44.373334z m304.682667-120.32a43.818667 43.818667 0 0 1-30.293334-12.416l-5.546666-5.546667a42.666667 42.666667 0 1 1 60.16-60.16l5.546666 5.589333a42.666667 42.666667 0 0 1-29.866666 72.533334z m-609.28 0a43.818667 43.818667 0 0 1-30.293334-12.416 42.666667 42.666667 0 0 1 0-60.117334l5.546667-5.589333a42.666667 42.666667 0 0 1 60.16 60.16l-5.546667 5.546667a42.410667 42.410667 0 0 1-29.909333 12.416zM938.666667 554.666667h-3.413334a42.666667 42.666667 0 1 1 0-85.333334 44.117333 44.117333 0 0 1 44.373334 42.666667 41.386667 41.386667 0 0 1-40.96 42.666667zM88.746667 554.666667H85.333333a42.666667 42.666667 0 1 1 0-85.333334 44.117333 44.117333 0 0 1 44.373334 42.666667 41.386667 41.386667 0 0 1-40.96 42.666667z m722.346666-299.093334a43.946667 43.946667 0 0 1-30.293333-12.373333 42.666667 42.666667 0 0 1 0-60.117333l5.546667-5.589334a42.666667 42.666667 0 1 1 60.16 60.16l-5.546667 5.546667a41.984 41.984 0 0 1-29.866667 12.373333z m-598.186666 0a43.477333 43.477333 0 0 1-30.293334-12.373333l-5.546666-5.973333a42.666667 42.666667 0 1 1 60.16-60.16l5.546666 5.546666a42.666667 42.666667 0 0 1 0 60.16 41.386667 41.386667 0 0 1-29.866666 12.8zM512 129.706667a41.386667 41.386667 0 0 1-42.666667-40.96V85.333333a42.666667 42.666667 0 1 1 85.333334 0 44.117333 44.117333 0 0 1-42.666667 44.373334z" fill="#292D32" p-id="1207"></path></svg>